<svg width="16" height="15" viewBox="0 0 16 15" fill="none" xmlns="http://www.w3.org/2000/svg">
<path d="M7.71219 0.521142C7.86186 0.0604862 8.51357 0.0604874 8.66324 0.521143L10.038 4.75209C10.1049 4.9581 10.2969 5.09758 10.5135 5.09758H14.9622C15.4465 5.09758 15.6479 5.71739 15.2561 6.00209L11.657 8.61696C11.4818 8.74428 11.4084 8.96997 11.4754 9.17598L12.8501 13.4069C12.9998 13.8676 12.4725 14.2506 12.0807 13.9659L8.48161 11.3511C8.30636 11.2238 8.06907 11.2238 7.89382 11.3511L4.29476 13.9659C3.9029 14.2506 3.37566 13.8676 3.52534 13.4069L4.90006 9.17598C4.967 8.96997 4.89367 8.74428 4.71842 8.61696L1.11936 6.00209C0.727506 5.71739 0.928895 5.09758 1.41326 5.09758H5.86194C6.07855 5.09758 6.27053 4.9581 6.33747 4.75209L7.71219 0.521142Z" fill="#FFDE00"/>
</svg>
